<?xml version="1.0" standalone="no"?>
<!DOCTYPE svg PUBLIC "-//W3C//DTD SVG 20010904//EN"
 "http://www.w3.org/TR/2001/REC-SVG-20010904/DTD/svg10.dtd">
<svg version="1.0" xmlns="http://www.w3.org/2000/svg"
 width="485.000000pt" height="485.000000pt" viewBox="0 0 485.000000 485.000000"
 preserveAspectRatio="xMidYMid meet">
<metadata>
Created by potrace 1.11, written by Peter Selinger 2001-2013
</metadata>
<g transform="translate(0.000000,485.000000) scale(0.100000,-0.100000)"
fill="#000000" stroke="none">
<path d="M2565 4750 c-30 -4 -89 -41 -230 -140 -104 -74 -199 -143 -210 -153
-10 -9 -25 -15 -32 -13 -7 3 -12 1 -10 -4 1 -5 -81 -67 -183 -139 -102 -72
-192 -136 -200 -143 -25 -22 -81 -58 -90 -58 -4 0 -10 -3 -12 -7 -5 -13 -116
-93 -128 -93 -5 0 -10 -4 -10 -9 0 -6 -18 -20 -40 -32 -22 -13 -40 -26 -40
-31 0 -4 -6 -8 -14 -8 -8 0 -16 -4 -18 -8 -1 -4 -38 -32 -80 -62 -43 -29 -78
-57 -78 -61 0 -11 108 -21 222 -20 l107 1 133 95 c73 53 151 108 173 122 22
14 42 30 43 34 2 5 10 9 17 9 7 0 15 3 17 8 2 6 96 73 324 232 12 8 33 24 48
34 26 19 27 18 49 -2 12 -11 42 -30 67 -42 25 -12 51 -25 59 -29 27 -13 158 7
209 32 28 14 53 23 56 20 3 -4 6 0 6 7 0 7 11 -3 24 -22 13 -19 40 -58 61 -86
l39 -51 63 44 c35 25 66 45 69 45 3 0 16 10 30 23 22 20 23 25 12 50 -7 15
-16 27 -19 27 -4 0 -22 24 -40 52 -19 29 -40 60 -47 68 -8 8 -59 78 -113 155
-55 77 -108 144 -117 150 -21 12 -64 14 -117 5z"/>
<path d="M3330 4417 c-46 -23 -139 -87 -174 -119 -11 -10 -23 -18 -26 -18 -4
0 -16 -8 -28 -17 -11 -10 -28 -24 -39 -31 -47 -32 -572 -410 -597 -430 -16
-12 -26 -25 -23 -28 3 -3 82 -7 175 -7 l169 -2 34 32 c19 18 40 33 47 33 6 0
12 5 12 10 0 6 4 10 9 10 6 0 25 14 43 30 18 17 38 30 44 30 7 0 14 4 16 8 2
5 24 23 50 40 l47 32 48 -33 c67 -48 113 -60 195 -55 50 4 85 14 127 35 l57
30 22 -31 c13 -17 35 -49 50 -72 15 -23 37 -53 49 -68 l22 -28 137 1 c75 0
139 2 141 5 4 3 -54 94 -68 106 -3 3 -31 41 -62 85 -30 45 -65 89 -76 99 -12
11 -21 23 -21 28 0 10 -55 92 -77 116 -7 7 -13 17 -13 20 0 4 -10 18 -22 32
-13 14 -43 55 -67 92 -35 52 -52 68 -81 77 -53 16 -69 14 -120 -12z"/>
<path d="M345 3607 c-71 -34 -110 -72 -167 -162 -20 -31 -27 -59 -32 -120 -6
-66 -9 -255 -6 -377 l0 -27 2180 -1 2180 0 1 52 c2 146 -3 406 -8 428 -3 13
-10 29 -15 35 -5 5 -19 28 -31 50 -26 46 -106 111 -159 127 -21 6 -38 15 -38
20 0 4 -863 8 -1918 8 l-1918 0 -69 -33z"/>
<path d="M4116 2873 c-1 -1 -896 -3 -1989 -4 -1817 -2 -1987 -3 -1991 -18 -3
-9 -4 -238 -3 -509 1 -272 -1 -496 -6 -499 -4 -2 -5 -8 -2 -13 7 -12 13 -380
6 -385 -4 -2 -4 -34 -1 -72 3 -37 5 -143 3 -235 -1 -92 2 -170 6 -173 5 -3
989 -5 2187 -5 l2179 0 3 107 c2 66 -1 110 -8 117 -7 7 -204 11 -633 12 -597
1 -625 2 -685 22 -155 50 -292 204 -320 359 -5 29 -8 193 -7 365 l2 313 27 69
c31 81 60 124 125 184 50 47 165 107 221 116 19 3 313 6 653 6 506 2 618 4
625 15 7 14 -1 211 -10 220 -4 5 -377 12 -382 8z"/>
<path d="M3259 2405 c-90 -27 -150 -85 -174 -170 -14 -46 -16 -102 -13 -347 3
-278 4 -295 25 -333 54 -101 123 -137 273 -142 171 -6 367 -6 378 1 5 3 22 2
38 -3 16 -4 38 -5 49 -1 11 4 24 5 29 2 6 -3 28 -5 50 -4 91 4 137 3 146 -3 6
-3 10 -2 10 3 0 6 14 7 34 2 19 -4 40 -4 46 0 7 4 24 4 39 0 14 -4 36 -3 49 1
12 5 22 5 22 0 0 -5 15 -5 33 -2 17 4 48 4 68 1 19 -4 44 -3 55 0 10 4 28 4
39 0 11 -4 28 -6 38 -4 123 19 157 28 173 45 9 10 22 19 28 19 14 0 57 64 74
110 10 26 13 110 13 341 -1 280 -3 310 -20 350 -23 52 -60 89 -120 119 -43 21
-46 22 -696 23 -418 1 -664 -2 -686 -8z m325 -349 c20 -15 36 -32 36 -37 0 -6
7 -17 15 -25 26 -26 23 -110 -6 -166 -47 -92 -177 -120 -262 -55 -97 74 -87
234 18 294 57 33 149 28 199 -11z"/>
<path d="M528 912 l-388 -2 -1 -123 c0 -67 -2 -148 -4 -179 -2 -32 -1 -58 3
-58 4 0 8 -17 8 -38 2 -84 101 -225 187 -265 97 -46 98 -46 1432 -45 693 0
1515 0 1827 -1 617 -2 614 -2 734 55 67 32 93 62 140 159 l39 79 -3 199 c-2
138 -7 203 -15 211 -9 8 -495 11 -1792 11 -979 0 -1954 -1 -2167 -3z"/>
</g>
</svg>
