<svg version="1" xmlns="http://www.w3.org/2000/svg" width="646.667" height="646.667" viewBox="0 0 485.000000 485.000000"><path d="M253.8 9c-2.6.8-10 5.8-10.6 7.2-.2.5-.8.8-1.4.8-.6 0-3.2 1.7-5.8 3.7-2.6 2.1-5.8 4.5-7 5.3-1.3.8-7.3 5.1-13.4 9.5-6.1 4.4-14.4 10.2-18.4 12.9-4 2.6-7.8 5.3-8.5 5.9-.6.7-4.1 3.2-7.7 5.6-3.6 2.5-6.7 4.7-7 5.1-.3.3-2.3 1.7-4.5 3.2-2.2 1.5-5.9 4.1-8.3 5.8-2.3 1.6-4.7 3-5.2 3-.6 0-1 .4-1 .9 0 .4-5.5 4.7-12.2 9.5-6.8 4.7-13 9.2-14 9.9-.9.6-4.1 2.8-7.2 4.7-3 1.9-5.5 3.8-5.6 4.2 0 .5 2 .8 4.3.8 2.4 0 4.7.3 5.1.7.4.5 6.9.9 14.4.9l13.7.1 10.5-7.5c5.8-4.2 18.2-13 27.5-19.6 9.4-6.7 17.2-12.4 17.3-12.8.2-.5.9-.8 1.5-.8.7 0 2.3-1.2 3.6-2.5 1.3-1.4 2.7-2.5 3.3-2.5.5 0 1.6-.6 2.3-1.3 6.3-5.6 12.5-8.4 12.5-5.6 0 .5.4.8.9.5.4-.3 1.7.4 2.7 1.5 3 3.3 5.1 4.1 13.4 4.6 8 .5 16-1 16-2.9 0-.6.3-.8.6-.5.4.3 1.6 0 2.8-.8 3.3-2.4 4.9-1.7 7.2 2.8 1.2 2.3 2.7 4.1 3.3 3.9.7-.1 1 .2.7.7-.4.5.3 1.6 1.5 2.5 1.2.8 1.8 1.9 1.5 2.5-.4.5-.2 1.2.3 1.5 1.3.8 4.2-.4 3.5-1.5-.3-.5.2-.6 1-.3 1.1.4 1.6 0 1.6-1 0-.9.3-1.5.8-1.4 1.5.3 4.7-1.7 6.5-3.9 1-1.3 2.2-2.1 2.7-1.8.5.3 1.8-.7 2.9-2.1 2-2.6 2-2.8.4-5.3-.9-1.4-2.5-3.4-3.5-4.5S297 48 297 47.3c0-.7-.4-1.3-1-1.3-.5 0-1-.4-1-.9s-1.3-2.3-3-4.1c-1.6-1.8-2.7-3.6-2.4-4.1.3-.5-.2-1.2-1-1.5-.9-.3-1.6-1.2-1.6-2 0-.7-.8-1.9-1.8-2.6-1-.7-2.9-3.1-4.2-5.3-1.3-2.2-2.8-4.2-3.2-4.3-.4-.2-.8-.8-.8-1.4 0-.6-1.1-1.9-2.5-3s-2.3-2.3-2.1-2.6c.6-1-1.6-3.7-4.1-5-2.4-1.3-10.4-1.4-14.5-.2zM336.3 39.8c-1.2.2-8.6 4.9-16.3 10.5-7.7 5.6-17.9 12.9-22.6 16.2-7.8 5.5-10.6 7.5-14.1 10.5-.7.5-1.5 1-1.8 1-.3 0-2.9 1.9-5.8 4.3-2.8 2.3-7 5.3-9.2 6.7-2.2 1.3-4.7 3.1-5.5 4-.8.9-4 3.3-7 5.5-6 4.2-10 7.9-10 9.3 0 .4 7.9.9 17.5.9 17.4.1 17.4.1 20.4-2.6 3.9-3.4 15.3-11.6 16-11.5.3 0 1.5-.8 2.5-1.8 1.1-1 2.5-1.8 3.1-1.8.6 0 1.7-.9 2.5-1.9 1.3-1.9 1.6-1.8 8.8 2.1 6.7 3.7 8.3 4.2 14.6 4.3 8.2.2 14-1 17.8-3.7 1.6-1.1 3.3-1.6 4-1.2 2.7 1.7 4.8 3.9 4.8 5.1 0 .6.6 1.8 1.3 2.5.6.7 1.8 2.5 2.6 4 .8 1.6 2 2.8 2.7 2.8.7 0 1.5.8 1.8 1.8.5 1.6 2.1 1.8 15.3 1.7 13.3 0 14.8-.2 15.1-1.8.2-.9-.1-1.7-.7-1.7s-1.1-.7-1.1-1.5-.4-1.5-1-1.5c-.5 0-1.7-1.4-2.6-3.2-1.6-3.1-2.5-4.4-5.4-7.6-.8-1-3-4-4.8-6.9-1.8-2.8-3.7-5.3-4.1-5.5-.4-.2-2.4-2.9-4.4-6-2-3.2-4.5-6.6-5.7-7.8-1.1-1.1-2-2.6-2-3.3 0-.7-.8-2-1.7-2.9-3.4-3.1-6.3-7-6.3-8.4 0-.8-.4-1.4-1-1.4-.5 0-1-.5-1-1.1 0-3.7-10.9-9-16.7-8.1zM34.5 124.3c-4.8 2.3-8.1 4.8-10.6 7.8-6.1 7.4-8.8 12.2-9.4 16.4-.8 5.6-1.5 40.6-.9 42.7.5 1.6 13.9 1.7 218.5 1.8H450l.1-2.2c.1-1.3.1-12.4 0-24.8l-.2-22.5-3.7-5.5c-3.9-5.7-10.5-11.3-17.7-14.9l-4.2-2.1H41.4l-6.9 3.3zM321.8 197.5c-.2.2-69.4.5-153.8.6-84.4.1-154.1.4-154.8.6-.9.4-1.2 20.4-1.2 95.4V389h439v-11.4c0-8.2-.3-11.5-1.2-11.8-.7-.2-27.7-.4-60.1-.4-32.3.1-58.7-.2-58.7-.5s-1.3-.4-2.8-.1c-3.1.4-14.1-2.2-18.2-4.3-5.2-2.7-17-15.7-19.9-22-1.6-3.3-2.9-6.7-2.9-7.5 0-.8-.5-3.1-1-5.1-1.5-5.8-.8-64.8.8-68.4.8-1.7 1.4-3.8 1.5-4.7.1-1 .8-2.5 1.6-3.4.8-1 1.3-2 1.1-2.3-.3-.8 5.8-10.1 6.6-10.1.4 0 2-1.1 3.6-2.5s3.3-2.5 3.8-2.5c.4 0 .8-.7.8-1.5 0-.9.6-1.2 1.7-.8 1.1.4 1.4.3.9-.5-.4-.7-.2-1.2.3-1.2 1.8 0 2.5-.3 3.9-1.6.6-.7 3.6-2 6.6-2.8 4.6-1.4 13.7-1.6 62.2-1.7 71 0 66.9 0 68.2-.8 1.1-.6 2-21.7 1-22.7-.3-.2-23.8-.4-52.4-.4-63.8.1-74.6 0-75.4-.5-.4-.3-.9-.3-1.2 0z"/><path d="M326.8 244.2c-1.8.3-3.6.4-4 .2-.5-.3-.8 0-.8.6s-.5.8-1.2.4c-.6-.4-1.7.1-2.5 1.1-.7 1.1-1.3 1.5-1.3 1.1 0-.4-1.6.8-3.6 2.8-2.1 2.1-3.3 4-2.8 4.7.4.7.3.9-.3.6-1.1-.7-2.8 2.2-1.8 3.1.3.3.5-.1.5-.8 0-.7.3-1 .6-.7.4.4.1 1.4-.6 2.3-.8.8-1.5 2.5-1.7 3.7-.6 3.4-.6 54.6 0 59.7.5 5.3 3.5 12 5.3 12 .7 0 2.1 1.4 3.1 3 1 1.7 2.3 2.8 3.1 2.5.8-.3 1 0 .6.7-.5.8-.2.9.9.5 1-.3 1.7-.3 1.7.2 0 .4 1.4.8 3.2.9 1.7 0 3.4.5 3.7 1 1 1.5 132.2.7 133.9-.8.1-.1.6-.3 1.1-.4.5 0 1.8-1.1 2.9-2.3 1-1.3 2.1-2 2.4-1.7.3.3 1.5-.8 2.7-2.3 1.1-1.5 2.6-3.4 3.1-4.1.6-.7.8-1.7.4-2.4-.4-.6-.3-.8.3-.5.6.4 1.5-.5 2.2-1.9.8-1.9.8-2.4 0-1.8-.8.5-.9.3-.3-.7.5-.8.9-15.5.9-32.8.1-30.1 0-31.4-1.9-33.9-1.3-1.7-1.5-2.3-.6-1.8 1.1.5 1 .4-.1-.6-1.6-1.3-1.9-1.9-1.9-3.8 0-.6-.7-1-1.6-1-.8 0-1.3-.3-1.1-.8.3-.4-.1-1.3-.9-2s-1.4-1-1.4-.6c0 .3-.6.1-1.3-.5-.8-.6-1.7-.8-2-.4-.4.3-.7.1-.7-.5 0-.7-.3-1.1-.7-1.1-1.9.3-3.4-.2-2.9-.9.6-.9-129.9-1-134.6 0zm28.5 34.2c.8 1.1 1.9 1.6 2.5 1.2.6-.3 1.4-.1 1.8.5.5.8.2 1-.7.5-.8-.4-.6-.1.4.7.9.8 1.7 1.9 1.7 2.6 0 .6.7 1.1 1.5 1.1 1.7 0 1.7-.1 1.9 7.5 0 3-.1 5.5-.4 5.5-.4 0-1.2 1.6-1.9 3.5s-1.7 3.5-2.2 3.5c-.5 0-.9.7-.9 1.5s-.3 1.4-.7 1.3c-.5 0-1.7.2-2.8.6-4.1 1.6-5.1 1.8-9.9 2-4.1.1-5.3-.3-7.6-2.6-1.5-1.5-3-2.5-3.3-2.2-.2.3-.8-.7-1.1-2.1-.4-1.4-1.1-2.3-1.6-2-1.1.7-1.1.9-1.3-6.8-.1-3.1.2-5.7.6-5.7.5 0 .6-.7.3-1.6-.3-.8-.2-1.2.4-.9.9.6 1.5-1.7 1-4-.1-.6.1-.7.5-.3.8.7 3.5-1.3 3-2.2-.2-.3.6-.7 1.8-.7 1.2-.1 2.3-.7 2.5-1.3.2-.5.8-.8 1.3-.4.5.3.9.2.9-.3 0-.4 2.5-.8 5.5-.8 4.2 0 5.7.5 6.8 1.9zM13.2 417.2c.3 22.8.4 24.6 2.5 28.8 3.1 6.2 10.7 14.6 15.7 17.3l4.1 2.2h389l6.8-3.3c7.1-3.4 15.3-10.6 18-15.9 1.6-3 2.1-16 1.8-44.6l-.1-8.7H12.9l.3 24.2z"/></svg>